<svg class="animated" id="freepik_stories-organizing-projects" xmlns="http://www.w3.org/2000/svg" viewBox="0 0 500 500" version="1.1" xmlns:xlink="http://www.w3.org/1999/xlink" xmlns:svgjs="http://svgjs.com/svgjs"><style>svg#freepik_stories-organizing-projects:not(.animated) .animable {opacity: 0;}svg#freepik_stories-organizing-projects.animated #freepik--background-complete--inject-4 {animation: 1s 1 forwards cubic-bezier(.36,-0.01,.5,1.38) slideUp;animation-delay: 0s;}svg#freepik_stories-organizing-projects.animated #freepik--Shadow--inject-4 {animation: 1s 1 forwards cubic-bezier(.36,-0.01,.5,1.38) fadeIn;animation-delay: 0s;}svg#freepik_stories-organizing-projects.animated #freepik--Board--inject-4 {animation: 1s 1 forwards cubic-bezier(.36,-0.01,.5,1.38) lightSpeedLeft;animation-delay: 0s;}svg#freepik_stories-organizing-projects.animated #freepik--Character--inject-4 {animation: 1s 1 forwards cubic-bezier(.36,-0.01,.5,1.38) zoomOut;animation-delay: 0s;}            @keyframes slideUp {                0% {                    opacity: 0;                    transform: translateY(30px);                }                100% {                    opacity: 1;                    transform: inherit;                }            }                    @keyframes fadeIn {                0% {                    opacity: 0;                }                100% {                    opacity: 1;                }            }                    @keyframes lightSpeedLeft {              from {                transform: translate3d(-50%, 0, 0) skewX(20deg);                opacity: 0;              }              60% {                transform: skewX(-10deg);                opacity: 1;              }              80% {                transform: skewX(2deg);              }              to {                opacity: 1;                transform: translate3d(0, 0, 0);              }            }                    @keyframes zoomOut {                0% {                    opacity: 0;                    transform: scale(1.5);                }                100% {                    opacity: 1;                    transform: scale(1);                }            }        </style><g id="freepik--background-complete--inject-4" class="animable" style="transform-origin: 250px 228.23px;"><rect y="382.4" width="500" height="0.25" style="fill: rgb(235, 235, 235); transform-origin: 250px 382.525px;" id="elxsc5fcinle" class="animable"></rect><rect x="52.46" y="391.92" width="77.91" height="0.25" style="fill: rgb(235, 235, 235); transform-origin: 91.415px 392.045px;" id="elu46p7z412p8" class="animable"></rect><rect x="412" y="399.53" width="37.9" height="0.25" style="fill: rgb(235, 235, 235); transform-origin: 430.95px 399.655px;" id="eldj3d1wzruzv" class="animable"></rect><rect x="131.37" y="401.21" width="19.19" height="0.25" style="fill: rgb(235, 235, 235); transform-origin: 140.965px 401.335px;" id="elgd6fdcqbczd" class="animable"></rect><rect x="202.17" y="389.21" width="43.19" height="0.25" style="fill: rgb(235, 235, 235); transform-origin: 223.765px 389.335px;" id="eliwr5zqd9sje" class="animable"></rect><rect x="254.26" y="389.21" width="6.33" height="0.25" style="fill: rgb(235, 235, 235); transform-origin: 257.425px 389.335px;" id="elyfbh5i15uia" class="animable"></rect><rect x="327.67" y="395.31" width="43.22" height="0.25" style="fill: rgb(235, 235, 235); transform-origin: 349.28px 395.435px;" id="elcpkma1kara5" class="animable"></rect><path d="M237,337.8H43.91a5.71,5.71,0,0,1-5.7-5.71V60.66A5.71,5.71,0,0,1,43.91,55H237a5.71,5.71,0,0,1,5.71,5.71V332.09A5.71,5.71,0,0,1,237,337.8ZM43.91,55.2a5.46,5.46,0,0,0-5.45,5.46V332.09a5.46,5.46,0,0,0,5.45,5.46H237a5.47,5.47,0,0,0,5.46-5.46V60.66A5.47,5.47,0,0,0,237,55.2Z" style="fill: rgb(235, 235, 235); transform-origin: 140.46px 196.4px;" id="elnkd0a490ej" class="animable"></path><path d="M453.31,337.8H260.21a5.72,5.72,0,0,1-5.71-5.71V60.66A5.72,5.72,0,0,1,260.21,55h193.1A5.71,5.71,0,0,1,459,60.66V332.09A5.71,5.71,0,0,1,453.31,337.8ZM260.21,55.2a5.47,5.47,0,0,0-5.46,5.46V332.09a5.47,5.47,0,0,0,5.46,5.46h193.1a5.47,5.47,0,0,0,5.46-5.46V60.66a5.47,5.47,0,0,0-5.46-5.46Z" style="fill: rgb(235, 235, 235); transform-origin: 356.75px 196.4px;" id="elrv0wzwsqv8a" class="animable"></path><path d="M132.87,359.54H83.73a4.41,4.41,0,0,1-4.36-3.78l-12.3-84.07a4.41,4.41,0,0,1,4.37-5.05h49.13a4.4,4.4,0,0,1,4.36,3.77l12.3,84.08A4.41,4.41,0,0,1,132.87,359.54Z" style="fill: rgb(240, 240, 240); transform-origin: 102.15px 313.09px;" id="el6pl9lmx6x6" class="animable"></path><path d="M89.58,359.54H66.41a4.4,4.4,0,0,1-4.36-3.78l-12.3-84.07a4.41,4.41,0,0,1,4.36-5.05H77.28a4.42,4.42,0,0,1,4.37,3.77l12.29,84.08A4.41,4.41,0,0,1,89.58,359.54Z" style="fill: rgb(250, 250, 250); transform-origin: 71.845px 313.09px;" id="elrrxxa11hu9" class="animable"></path><path d="M382.82,245.33H144c-6.07,0-11.4,4.55-11.92,10.16l-6,64.91c-.52,5.61,4,10.16,10,10.16h238.8c6.07,0,11.4-4.55,11.92-10.16l6-64.91C393.38,249.88,388.89,245.33,382.82,245.33Z" style="fill: rgb(224, 224, 224); transform-origin: 259.445px 287.945px;" id="elicc0pkj9px" class="animable"></path><path d="M366.61,245.33H127.81c-6.07,0-11.4,4.55-11.92,10.16l-6,64.91c-.52,5.61,4,10.16,10,10.16h238.8c6.07,0,11.41-4.55,11.92-10.16l6-64.91C377.17,249.88,372.68,245.33,366.61,245.33Z" style="fill: rgb(230, 230, 230); transform-origin: 243.253px 287.945px;" id="elu0ypzo7duaf" class="animable"></path><g id="elwank0v9jfbp"><rect x="131.08" y="288.62" width="37.5" height="104.33" rx="7.19" style="fill: rgb(235, 235, 235); transform-origin: 149.83px 340.785px; transform: rotate(90deg);" class="animable"></rect></g><g id="eljtnvj1zw2z9"><rect x="268.04" y="281.72" width="37.5" height="118.14" rx="6.58" style="fill: rgb(224, 224, 224); transform-origin: 286.79px 340.79px; transform: rotate(90deg);" class="animable"></rect></g><g id="elzvojlsq9ajb"><rect x="242.31" y="281.72" width="37.5" height="118.14" rx="6.58" style="fill: rgb(235, 235, 235); transform-origin: 261.06px 340.79px; transform: rotate(90deg);" class="animable"></rect></g><path d="M382.17,359.54H345.62a3.84,3.84,0,0,1-3.73-5.05l23-84.08a5.19,5.19,0,0,1,4.85-3.77h36.55a3.84,3.84,0,0,1,3.72,5.05l-23,84.07A5.17,5.17,0,0,1,382.17,359.54Z" style="fill: rgb(240, 240, 240); transform-origin: 375.95px 313.09px;" id="elcrzy0w87zmr" class="animable"></path><path d="M351.46,359.54H328.29a3.84,3.84,0,0,1-3.72-5.05l23-84.08a5.18,5.18,0,0,1,4.85-3.77H375.6a3.84,3.84,0,0,1,3.73,5.05l-23,84.07A5.19,5.19,0,0,1,351.46,359.54Z" style="fill: rgb(250, 250, 250); transform-origin: 351.95px 313.09px;" id="elcqy3utarotl" class="animable"></path><polygon points="332.08 382.4 328.56 382.4 320.13 359.54 328.85 359.54 332.08 382.4" style="fill: rgb(224, 224, 224); transform-origin: 326.105px 370.97px;" id="el2lkadmp3v1v" class="animable"></polygon><polygon points="376.7 382.4 373.18 382.4 364.75 359.54 373.46 359.54 376.7 382.4" style="fill: rgb(224, 224, 224); transform-origin: 370.725px 370.97px;" id="elirt6m1k237i" class="animable"></polygon><polygon points="123.07 382.4 126.59 382.4 135.01 359.54 126.3 359.54 123.07 382.4" style="fill: rgb(224, 224, 224); transform-origin: 129.04px 370.97px;" id="ely8agr3lkzzr" class="animable"></polygon><polygon points="78.45 382.4 81.97 382.4 90.39 359.54 81.69 359.54 78.45 382.4" style="fill: rgb(224, 224, 224); transform-origin: 84.42px 370.97px;" id="el8io2bo6x4od" class="animable"></polygon><rect x="116.67" y="97.67" width="266.66" height="95.11" style="fill: rgb(224, 224, 224); transform-origin: 250px 145.225px;" id="elj241rlo8ofr" class="animable"></rect><rect x="114.22" y="97.67" width="266.66" height="95.11" style="fill: rgb(240, 240, 240); transform-origin: 247.55px 145.225px;" id="el18hgrke9scn" class="animable"></rect><g id="elavuyce97p5"><rect x="208" y="19.89" width="79.11" height="250.66" style="fill: rgb(250, 250, 250); transform-origin: 247.555px 145.22px; transform: rotate(90deg);" class="animable"></rect></g><circle cx="247.56" cy="145.22" r="23.72" style="fill: rgb(240, 240, 240); transform-origin: 247.56px 145.22px;" id="elc25l12h9o97" class="animable"></circle><polygon points="162.91 184.78 179.53 105.67 216.19 105.67 199.58 184.78 162.91 184.78" style="fill: rgb(255, 255, 255); transform-origin: 189.55px 145.225px;" id="eldowvstw11s" class="animable"></polygon><polygon points="215.05 184.78 231.67 105.67 250 105.67 233.39 184.78 215.05 184.78" style="fill: rgb(255, 255, 255); transform-origin: 232.525px 145.225px;" id="elvmoieoy3scl" class="animable"></polygon><polygon points="326.99 184.78 343.61 105.67 361.94 105.67 345.33 184.78 326.99 184.78" style="fill: rgb(255, 255, 255); transform-origin: 344.465px 145.225px;" id="el1n4rccpf5jk" class="animable"></polygon><path d="M442.28,251.76c-6.22,27,9,54.82,2.77,81.78l-6.16-.26-6.16-.25C443.06,306.23,432,278.55,442.28,251.76Z" style="fill: rgb(240, 240, 240); transform-origin: 439.655px 292.65px;" id="eld43dtcqtan" class="animable"></path><path d="M426.33,263.45c5.1,25.78-11.26,51.56-6.16,77.34H432.5C423.29,315,435.54,289.23,426.33,263.45Z" style="fill: rgb(240, 240, 240); transform-origin: 425.836px 302.12px;" id="eldufq7xpxvws" class="animable"></path><path d="M437.72,242c-8.16,27.49,7,57.16-1.16,84.65l-6.7-.63-6.7-.62C435.79,298.34,425.09,269.09,437.72,242Z" style="fill: rgb(230, 230, 230); transform-origin: 431.109px 284.325px;" id="eljvcfkvqvzod" class="animable"></path><path d="M449.73,281.61c2.63,14.86-12,26.55-9.41,41.42l5,.91,5,.91C444.32,309.38,455.67,297.08,449.73,281.61Z" style="fill: rgb(230, 230, 230); transform-origin: 445.76px 303.23px;" id="eljer59n0i99q" class="animable"></path><ellipse cx="435.02" cy="352.22" rx="33.65" ry="37.68" style="fill: rgb(224, 224, 224); transform-origin: 435.02px 352.22px;" id="elih82ohxedxr" class="animable"></ellipse></g><g id="freepik--Shadow--inject-4" class="animable" style="transform-origin: 250px 416.24px;"><ellipse id="freepik--path--inject-4" cx="250" cy="416.24" rx="193.89" ry="11.32" style="fill: rgb(245, 245, 245); transform-origin: 250px 416.24px;" class="animable"></ellipse></g><g id="freepik--Board--inject-4" class="animable" style="transform-origin: 279.06px 269.735px;"><path d="M383.8,274.59H167.7a4,4,0,0,1-4-4.23L171,137.87a4.54,4.54,0,0,1,4.47-4.23h216.1a4,4,0,0,1,4,4.23l-7.28,132.49A4.52,4.52,0,0,1,383.8,274.59Z" style="fill: rgb(38, 50, 56); transform-origin: 279.635px 204.115px;" id="eln3041axvaw" class="animable"></path><path d="M292.89,156.17H272a11.88,11.88,0,0,1-12-12.65l.21-3.86a13.14,13.14,0,0,1,12.94-12.25h20.88a11.89,11.89,0,0,1,12,12.65l-.21,3.86A13.16,13.16,0,0,1,292.89,156.17Z" style="fill: rgb(38, 50, 56); transform-origin: 283.015px 141.79px;" id="elhyok55ohy5t" class="animable"></path><polygon points="311.91 412.06 305.22 412.06 286.79 130.36 293.49 130.36 311.91 412.06" style="fill: rgb(38, 50, 56); transform-origin: 299.35px 271.21px;" id="ellzcisi11kgp" class="animable"></polygon><polygon points="261.67 412.06 268.37 412.06 286.79 130.36 280.1 130.36 261.67 412.06" style="fill: rgb(38, 50, 56); transform-origin: 274.23px 271.21px;" id="elriuo6jjr6vh" class="animable"></polygon><path d="M382.65,274.59H166.55a4,4,0,0,1-4-4.23l7.27-132.49a4.54,4.54,0,0,1,4.47-4.23h216.1a4,4,0,0,1,4,4.23l-7.28,132.49A4.52,4.52,0,0,1,382.65,274.59Z" style="fill: rgb(64, 123, 255); transform-origin: 278.47px 204.115px;" id="eltlfsoxuu37q" class="animable"></path><g id="el8tiby6cc3hu"><path d="M170,270.53a3.17,3.17,0,0,1-3.2-3.38l6.93-126.07a3.61,3.61,0,0,1,3.56-3.38H387a3.17,3.17,0,0,1,3.2,3.38l-6.93,126.07a3.61,3.61,0,0,1-3.57,3.38Z" style="fill: rgb(38, 50, 56); opacity: 0.4; transform-origin: 278.5px 204.115px;" class="animable"></path></g><g id="elle8ak4dfom"><path d="M381,203.71H317.85a2.69,2.69,0,0,1-2.72-2.87l3.15-57.39a.39.39,0,0,0-.38-.41.44.44,0,0,0-.43.41l-3.15,57.39a3.08,3.08,0,0,1-3,2.87H245.7a2.69,2.69,0,0,1-2.72-2.87l3.15-57.39a.39.39,0,0,0-.38-.41.44.44,0,0,0-.43.41l-3.15,57.39a3.08,3.08,0,0,1-3,2.87H176a.43.43,0,0,0-.43.41.38.38,0,0,0,.38.4h63.12a2.7,2.7,0,0,1,2.72,2.88l-3.15,57.38a.37.37,0,0,0,.38.41.44.44,0,0,0,.43-.41l3.15-57.38a3.07,3.07,0,0,1,3-2.88h65.59A2.7,2.7,0,0,1,314,207.4l-3.15,57.38a.37.37,0,0,0,.38.41.44.44,0,0,0,.43-.41l3.15-57.38a3.07,3.07,0,0,1,3-2.88h63.12a.44.44,0,0,0,.43-.4A.38.38,0,0,0,381,203.71Z" style="fill: rgb(255, 255, 255); opacity: 0.1; transform-origin: 278.465px 204.115px;" class="animable"></path></g><g id="elqvxk9vbh3y"><polygon points="278.05 153.44 252.7 153.44 251.28 179.23 276.6 179.91 278.05 153.44" style="fill: rgb(38, 50, 56); opacity: 0.4; transform-origin: 264.665px 166.675px;" class="animable"></polygon></g><path d="M275.31,178.8l-25.45-1.24a223.51,223.51,0,0,0,2.65-26.31l25.59,1.24A223.66,223.66,0,0,1,275.31,178.8Z" style="fill: rgb(255, 255, 255); transform-origin: 263.98px 165.025px;" id="eloaszfq0zwaq" class="animable"></path><g id="elcc91ttdgh7i"><polygon points="308.62 170.67 283.23 172.61 283.79 198.31 309.19 197.05 308.62 170.67" style="fill: rgb(38, 50, 56); opacity: 0.4; transform-origin: 296.21px 184.49px;" class="animable"></polygon></g><path d="M307.81,196.05l-25.58.71a220.77,220.77,0,0,0,.64-26.32l25.72-.73A221.17,221.17,0,0,1,307.81,196.05Z" style="fill: rgb(64, 123, 255); transform-origin: 295.46px 183.235px;" id="elmlz6hgz0z9" class="animable"></path><g id="elua6gyznxct"><polygon points="234.48 217.56 187.68 215.78 183.47 257.41 230.17 260.29 234.48 217.56" style="fill: rgb(38, 50, 56); opacity: 0.4; transform-origin: 208.975px 238.035px;" class="animable"></polygon></g><path d="M227.84,258.41,181,254.6a319.83,319.83,0,0,0,6.5-42.4L234.62,216A317.45,317.45,0,0,1,227.84,258.41Z" style="fill: rgb(255, 255, 255); transform-origin: 207.81px 235.305px;" id="elokda2rgovl" class="animable"></path><g id="el4lrd5zatn6r"><g style="opacity: 0.3; mix-blend-mode: multiply; transform-origin: 208.745px 173.89px;" class="animable"><path d="M186.31,159.27h0a2.49,2.49,0,0,1-2.5-2.64h0A2.84,2.84,0,0,1,186.6,154h0a2.48,2.48,0,0,1,2.49,2.64h0A2.83,2.83,0,0,1,186.31,159.27Z" style="fill: rgb(38, 50, 56); transform-origin: 186.45px 156.635px;" id="elnbz896adkas" class="animable"></path><g id="elsft4lcdri5i"><path d="M227.66,159.27H195.19a2.48,2.48,0,0,1-2.49-2.64h0a2.82,2.82,0,0,1,2.78-2.64H228a2.49,2.49,0,0,1,2.5,2.64h0A2.84,2.84,0,0,1,227.66,159.27Z" style="fill: rgb(38, 50, 56); opacity: 0.8; transform-origin: 211.6px 156.63px;" class="animable"></path></g><path d="M185.68,170.78h0a2.48,2.48,0,0,1-2.5-2.64h0A2.83,2.83,0,0,1,186,165.5h0a2.48,2.48,0,0,1,2.49,2.64h0A2.83,2.83,0,0,1,185.68,170.78Z" style="fill: rgb(38, 50, 56); transform-origin: 185.835px 168.14px;" id="elt3rkoazmy9h" class="animable"></path><g id="elk0lf80gbay"><path d="M232.78,170.78H194.56a2.49,2.49,0,0,1-2.5-2.64h0a2.84,2.84,0,0,1,2.79-2.64h38.22a2.49,2.49,0,0,1,2.5,2.64h0A2.84,2.84,0,0,1,232.78,170.78Z" style="fill: rgb(38, 50, 56); opacity: 0.8; transform-origin: 213.815px 168.14px;" class="animable"></path></g><path d="M185,182.28h0a2.47,2.47,0,0,1-2.49-2.63h0a2.82,2.82,0,0,1,2.78-2.64h0a2.48,2.48,0,0,1,2.5,2.64h0A2.83,2.83,0,0,1,185,182.28Z" style="fill: rgb(38, 50, 56); transform-origin: 185.15px 179.645px;" id="el01v76ge8b6w4" class="animable"></path><g id="elin8k6bmjgm"><path d="M212.53,182.28H193.92a2.47,2.47,0,0,1-2.49-2.63h0a2.82,2.82,0,0,1,2.78-2.64h18.61a2.47,2.47,0,0,1,2.49,2.64h0A2.82,2.82,0,0,1,212.53,182.28Z" style="fill: rgb(38, 50, 56); opacity: 0.8; transform-origin: 203.37px 179.645px;" class="animable"></path></g><g id="elp4p0gl01e7f"><path d="M229.76,193.79H211.15a2.48,2.48,0,0,1-2.49-2.64h0a2.83,2.83,0,0,1,2.78-2.64h18.61a2.48,2.48,0,0,1,2.49,2.64h0A2.83,2.83,0,0,1,229.76,193.79Z" style="fill: rgb(38, 50, 56); opacity: 0.8; transform-origin: 220.6px 191.15px;" class="animable"></path></g><path d="M184.41,193.79h0a2.48,2.48,0,0,1-2.49-2.64h0a2.83,2.83,0,0,1,2.78-2.64h0a2.48,2.48,0,0,1,2.49,2.64h0A2.83,2.83,0,0,1,184.41,193.79Z" style="fill: rgb(38, 50, 56); transform-origin: 184.555px 191.15px;" id="elct0myujdeh6" class="animable"></path><g id="el5081snklpo9"><path d="M201.88,193.79h-8.59a2.48,2.48,0,0,1-2.49-2.64h0a2.83,2.83,0,0,1,2.78-2.64h8.59a2.48,2.48,0,0,1,2.5,2.64h0A2.83,2.83,0,0,1,201.88,193.79Z" style="fill: rgb(38, 50, 56); opacity: 0.8; transform-origin: 197.735px 191.15px;" class="animable"></path></g></g></g><polygon points="265.14 228.03 252.55 228.03 250.82 259.54 263.41 259.54 265.14 228.03" style="fill: rgb(64, 123, 255); transform-origin: 257.98px 243.785px;" id="ely8jb5524pfb" class="animable"></polygon><polygon points="284.25 234.53 271.65 234.53 270.28 259.54 282.87 259.54 284.25 234.53" style="fill: rgb(64, 123, 255); transform-origin: 277.265px 247.035px;" id="el5a5m5bxixmg" class="animable"></polygon><polygon points="304.62 217.75 292.03 217.75 289.74 259.54 302.33 259.54 304.62 217.75" style="fill: rgb(64, 123, 255); transform-origin: 297.18px 238.645px;" id="ell39n8iwe16" class="animable"></polygon><path d="M255.36,245.81c-1.25,0-2.51,0-3.78-.1a21.41,21.41,0,0,1-7.62-1.54.82.82,0,0,1-.41-1.08.81.81,0,0,1,1.08-.4,20,20,0,0,0,7,1.4c15.11.78,28.34-3.16,41.66-12.38a46.62,46.62,0,0,0,10.83-10.5.81.81,0,1,1,1.33.92A47,47,0,0,1,294.24,233C281.74,241.71,269.29,245.81,255.36,245.81Z" style="fill: rgb(255, 255, 255); transform-origin: 274.551px 233.315px;" id="elojmnm5t2tf" class="animable"></path><path d="M307.36,227.43a.81.81,0,0,1-.75-1.12,14.31,14.31,0,0,0,.7-8.75,54.51,54.51,0,0,1-10.06,5.34.81.81,0,1,1-.61-1.5,53.09,53.09,0,0,0,10.67-5.81.82.82,0,0,1,1.23.41,15.79,15.79,0,0,1-.43,10.93A.81.81,0,0,1,307.36,227.43Z" style="fill: rgb(255, 255, 255); transform-origin: 302.713px 221.441px;" id="el1v096sevpow" class="animable"></path><path d="M373.67,196.37H326.83a2.81,2.81,0,0,1-2.83-3l2.18-39.6a3.15,3.15,0,0,1,3.1-2.94h46.85a2.81,2.81,0,0,1,2.82,3l-2.18,39.6A3.15,3.15,0,0,1,373.67,196.37Zm-44.39-44.72a2.32,2.32,0,0,0-2.29,2.18l-2.18,39.6a2,2,0,0,0,2,2.13h46.84a2.32,2.32,0,0,0,2.29-2.18l2.18-39.6a2,2,0,0,0-.54-1.51,2,2,0,0,0-1.47-.62Z" style="fill: rgb(64, 123, 255); transform-origin: 351.475px 173.6px;" id="el4rkpaq6ebc" class="animable"></path><path d="M378.1,162.2h-52a.41.41,0,0,1,0-.81h52a.41.41,0,1,1,0,.81Z" style="fill: rgb(64, 123, 255); transform-origin: 352.164px 161.795px;" id="eledd0i0o3ymk" class="animable"></path><path d="M336.54,196.37h0a.41.41,0,0,1-.38-.43L338,161.77a.4.4,0,0,1,.43-.38.41.41,0,0,1,.38.43L336.94,196A.41.41,0,0,1,336.54,196.37Z" style="fill: rgb(64, 123, 255); transform-origin: 337.485px 178.879px;" id="elh3jd74k0q7" class="animable"></path><path d="M372.15,166.26H343.94a.41.41,0,0,1,0-.81h28.21a.41.41,0,1,1,0,.81Z" style="fill: rgb(64, 123, 255); transform-origin: 358.109px 165.855px;" id="elplepzcuy57k" class="animable"></path><path d="M367.9,171.24H343.67a.41.41,0,1,1,0-.81H367.9a.41.41,0,1,1,0,.81Z" style="fill: rgb(64, 123, 255); transform-origin: 355.785px 170.835px;" id="elunm6055h5fg" class="animable"></path><path d="M357.49,176.38h-14.1a.41.41,0,1,1,0-.81h14.1a.41.41,0,1,1,0,.81Z" style="fill: rgb(64, 123, 255); transform-origin: 350.44px 175.975px;" id="el517ic54ci4i" class="animable"></path><path d="M360.05,186.42H342.84a.41.41,0,1,1,0-.81h17.21a.41.41,0,1,1,0,.81Z" style="fill: rgb(64, 123, 255); transform-origin: 351.445px 186.015px;" id="elwea8ta6rqgo" class="animable"></path><path d="M356.66,191.56H342.55a.41.41,0,0,1,0-.81h14.11a.41.41,0,0,1,0,.81Z" style="fill: rgb(64, 123, 255); transform-origin: 349.605px 191.155px;" id="elntgm9e90thn" class="animable"></path><path d="M364.91,191.56H360.4a.41.41,0,1,1,0-.81h4.51a.41.41,0,1,1,0,.81Z" style="fill: rgb(64, 123, 255); transform-origin: 362.655px 191.155px;" id="elit55cvfijk" class="animable"></path><path d="M369.53,181.37H343.11a.41.41,0,0,1,0-.82h26.42a.41.41,0,0,1,0,.82Z" style="fill: rgb(64, 123, 255); transform-origin: 356.32px 180.96px;" id="el3g4h2rg3ix" class="animable"></path><path d="M344.9,254c-6.12,0-11.13-1.81-14.24-5.17-3.33-3.59-4.71-9.24-3.79-15.5a18.71,18.71,0,0,1,11.95-15.72,28.62,28.62,0,0,1,24.23.32c3.29,1.65,5.35,3.74,6.13,6.21a.81.81,0,0,1-1.55.49c-.64-2-2.43-3.8-5.31-5.25a27,27,0,0,0-22.84-.29,17.12,17.12,0,0,0-11,14.48c-.85,5.77.38,10.93,3.37,14.15,4.15,4.49,11,4.81,14.76,4.61,6.94-.39,12.9-2.81,16.8-6.82,4.56-4.7,5.84-11.72,3-16.34a5.12,5.12,0,0,0-3.51-2.6.81.81,0,0,1,.16-1.61,6.5,6.5,0,0,1,4.73,3.35c3.24,5.24,1.87,13.11-3.19,18.33-4.19,4.31-10.53,6.9-17.88,7.31C346.09,254,345.49,254,344.9,254Z" style="fill: rgb(255, 255, 255); transform-origin: 348.066px 234.538px;" id="elluz8cqoh1p" class="animable"></path></g><g id="freepik--Character--inject-4" class="animable" style="transform-origin: 168.376px 264.663px;"><path d="M137.32,169.34l-2.89,5-2.82,5.13c-1.86,3.43-3.64,6.89-5.26,10.36-.81,1.75-1.58,3.48-2.28,5.22l-.13.32,0,.07a.8.8,0,0,0-.09.14,2.64,2.64,0,0,0-.14.29,2.09,2.09,0,0,0,.12,1.12,11.13,11.13,0,0,0,2.41,3.65,43,43,0,0,0,3.91,3.7l-2.35,5a24.5,24.5,0,0,1-3.23-1.14,26.6,26.6,0,0,1-3-1.56,17.44,17.44,0,0,1-5.64-5.23,11.66,11.66,0,0,1-1.76-4.56,10.32,10.32,0,0,1,0-2.72,8.21,8.21,0,0,1,.23-1.33l.16-.65.12-.4c.65-2,1.31-4.07,2.09-6,1.52-3.92,3.24-7.72,5.1-11.41.94-1.84,1.9-3.67,2.92-5.47s2-3.56,3.2-5.38Z" style="fill: rgb(255, 195, 189); transform-origin: 125.7px 186.415px;" id="elp1dj7erq73g" class="animable"></path><path d="M127.6,203.8l5.25-1.37.3,8.48s-4.11.61-6.62-1.9Z" style="fill: rgb(255, 195, 189); transform-origin: 129.84px 206.703px;" id="elic69j1apxpd" class="animable"></path><polygon points="140.3 201 139.11 208.45 133.15 210.91 132.85 202.43 140.3 201" style="fill: rgb(255, 195, 189); transform-origin: 136.575px 205.955px;" id="elc2owhazt6ij" class="animable"></polygon><path d="M162,129.36c.12.58.52,1,.9.91s.6-.61.48-1.19-.52-1-.9-.91S161.92,128.78,162,129.36Z" style="fill: rgb(38, 50, 56); transform-origin: 162.697px 129.22px;" id="elcyee9bp9nue" class="animable"></path><path d="M162.5,130.36a21.21,21.21,0,0,0,3.78,4.4,3.38,3.38,0,0,1-2.66,1.08Z" style="fill: rgb(237, 132, 126); transform-origin: 164.39px 133.102px;" id="elncgza1aovy" class="animable"></path><path d="M159.25,126.57a.34.34,0,0,1-.23-.1.34.34,0,0,1,0-.49,3.46,3.46,0,0,1,3-1.15.34.34,0,0,1,.28.4.35.35,0,0,1-.4.29h0a2.76,2.76,0,0,0-2.33.93A.34.34,0,0,1,159.25,126.57Z" style="fill: rgb(38, 50, 56); transform-origin: 160.611px 125.691px;" id="elk287zqo6waa" class="animable"></path><path d="M145.49,137.52c1.06,5.38,2.11,15.23-1.65,18.81,0,0,1.47,5.45,11.45,5.45,11,0,5.25-5.45,5.25-5.45-6-1.43-5.84-5.87-4.79-10.05Z" style="fill: rgb(255, 195, 189); transform-origin: 152.941px 149.65px;" id="eldrystqd17if" class="animable"></path><path d="M141.67,157.33c-.8-1.49-1.69-3.2.14-3.74,2-.59,14.94-1.68,18.74-.57-1.17,2.07.8,4.62.8,4.62Z" style="fill: rgb(38, 50, 56); transform-origin: 151.042px 155.091px;" id="el49lp43fb8dd" class="animable"></path><path d="M109.14,407.88a2.38,2.38,0,0,0,1.83-.1.71.71,0,0,0,.17-.81.81.81,0,0,0-.45-.51c-1-.47-3.27.46-3.37.5a.16.16,0,0,0-.11.15.18.18,0,0,0,.1.16A9.17,9.17,0,0,0,109.14,407.88Zm1.19-1.17a1.05,1.05,0,0,1,.21.06.48.48,0,0,1,.26.3c.1.32,0,.41-.06.45-.39.33-1.86,0-2.89-.39A5.67,5.67,0,0,1,110.33,406.71Z" style="fill: rgb(64, 123, 255); transform-origin: 109.205px 407.172px;" id="elmukscw4qahq" class="animable"></path><path d="M107.35,407.29h.08c.83-.24,2.61-1.5,2.63-2.33a.57.57,0,0,0-.44-.57.94.94,0,0,0-.77.06c-1,.51-1.61,2.54-1.63,2.63a.18.18,0,0,0,0,.17Zm2.08-2.6.07,0c.22.08.22.18.22.23,0,.49-1.19,1.48-2,1.88a4.27,4.27,0,0,1,1.34-2.07A.62.62,0,0,1,109.43,404.69Z" style="fill: rgb(64, 123, 255); transform-origin: 108.629px 405.812px;" id="elq7hlj26q0w" class="animable"></path><path d="M163.38,409.11c.94,0,1.85-.13,2.16-.55a.67.67,0,0,0,0-.76.87.87,0,0,0-.55-.41c-1.22-.33-3.79,1.13-3.9,1.2a.16.16,0,0,0-.08.18.17.17,0,0,0,.13.14A13.43,13.43,0,0,0,163.38,409.11Zm1.16-1.42a1.22,1.22,0,0,1,.34,0,.51.51,0,0,1,.34.24c.12.22.08.33,0,.39-.34.47-2.2.48-3.56.29A7.82,7.82,0,0,1,164.54,407.69Z" style="fill: rgb(64, 123, 255); transform-origin: 163.332px 408.226px;" id="elh92cwmawq8" class="animable"></path><path d="M161.16,408.91h.07c.89-.4,2.64-2,2.51-2.82,0-.2-.17-.44-.65-.49a1.33,1.33,0,0,0-1,.3c-.93.77-1.13,2.75-1.14,2.83a.21.21,0,0,0,.08.16A.17.17,0,0,0,161.16,408.91Zm1.79-3h.1c.32,0,.34.15.34.19.08.5-1.11,1.75-2,2.29a4,4,0,0,1,1-2.26A.92.92,0,0,1,163,405.93Z" style="fill: rgb(64, 123, 255); transform-origin: 162.348px 407.253px;" id="elhwktqxybjao" class="animable"></path><polygon points="153.08 408.74 160.43 408.74 161.16 391.72 153.81 391.72 153.08 408.74" style="fill: rgb(255, 195, 189); transform-origin: 157.12px 400.23px;" id="el29al1ot0tum" class="animable"></polygon><polygon points="99.16 405.34 106.34 406.89 113.55 391.05 106.37 389.49 99.16 405.34" style="fill: rgb(255, 195, 189); transform-origin: 106.355px 398.19px;" id="elgusr6zkxaw" class="animable"></polygon><path d="M107,406.17,99,404.42a.64.64,0,0,0-.71.36l-2.8,6.08a1.07,1.07,0,0,0,.77,1.5c2.83.56,4.23.69,7.78,1.46,2.18.47,7.11,1.67,10.12,2.33s4-2.25,2.88-2.78c-5.27-2.41-7.47-4.53-8.9-6.51A1.8,1.8,0,0,0,107,406.17Z" style="fill: rgb(38, 50, 56); transform-origin: 106.439px 410.327px;" id="el5nnhqwcwlw7" class="animable"></path><path d="M160.38,407.89h-8a.63.63,0,0,0-.62.5l-1.45,6.53a1.06,1.06,0,0,0,1.05,1.3c2.9,0,7.08-.21,10.72-.21,4.25,0,7.92.23,12.91.23,3,0,3.86-3.05,2.59-3.33-5.74-1.25-10.44-1.39-15.4-4.45A3.44,3.44,0,0,0,160.38,407.89Z" style="fill: rgb(38, 50, 56); transform-origin: 164.215px 412.065px;" id="elccgn37zhjp9" class="animable"></path><path d="M130.68,158c-6.88,1.58-12.56,19.16-12.56,19.16L132,187.69a30.24,30.24,0,0,0,7.33-13.58C141.65,164.9,137.72,156.38,130.68,158Z" style="fill: rgb(64, 123, 255); transform-origin: 129.059px 172.745px;" id="elw5ory3hiie" class="animable"></path><g id="el5feu5n2cqfd"><path d="M130.68,158c-6.88,1.58-12.56,19.16-12.56,19.16L132,187.69a30.24,30.24,0,0,0,7.33-13.58C141.65,164.9,137.72,156.38,130.68,158Z" style="fill: rgb(250, 250, 250); opacity: 0.2; transform-origin: 129.059px 172.745px;" class="animable"></path></g><g id="el4lvmuhnqhe7"><path d="M136.58,170.92c-3.74,3.7-5,10.44-5.25,16.3l.61.47a30.2,30.2,0,0,0,7.34-13.58c.14-.55.26-1.1.36-1.64Z" style="opacity: 0.2; transform-origin: 135.485px 179.305px;" class="animable"></path></g><path d="M171.84,158.37s7.82,8.83.43,63.5H133c-.27-6,3.52-35.46-2.3-63.88a102.86,102.86,0,0,1,13.16-1.66,145.27,145.27,0,0,1,16.7,0A73.5,73.5,0,0,1,171.84,158.37Z" style="fill: rgb(64, 123, 255); transform-origin: 153.073px 188.98px;" id="eleh5v9viqidl" class="animable"></path><g id="elje1hpjc3h9a"><path d="M171.84,158.37s7.82,8.83.43,63.5H133c-.27-6,3.52-35.46-2.3-63.88a102.86,102.86,0,0,1,13.16-1.66,145.27,145.27,0,0,1,16.7,0A73.5,73.5,0,0,1,171.84,158.37Z" style="fill: rgb(250, 250, 250); opacity: 0.2; transform-origin: 153.073px 188.98px;" class="animable"></path></g><g id="elkta0qjwngh"><path d="M175.27,175.08l-.15-.13-8.93,2.14c-.51,6,5.7,13.26,8.9,16.56A171.45,171.45,0,0,0,175.27,175.08Z" style="opacity: 0.2; transform-origin: 170.8px 184.3px;" class="animable"></path></g><g id="el95gonpq7t49"><polygon points="161.16 391.73 160.78 400.5 153.43 400.5 153.81 391.73 161.16 391.73" style="opacity: 0.2; transform-origin: 157.295px 396.115px;" class="animable"></polygon></g><g id="ely2cwflqeol"><polygon points="106.36 389.49 113.55 391.05 109.83 399.22 102.64 397.66 106.36 389.49" style="opacity: 0.2; transform-origin: 108.095px 394.355px;" class="animable"></polygon></g><path d="M142.42,132.06c1.88,7.05,2.63,11.26,7,14.19,6.53,4.41,14.67-.65,14.93-8.11.23-6.72-2.9-17.11-10.46-18.53A9.94,9.94,0,0,0,142.42,132.06Z" style="fill: rgb(255, 195, 189); transform-origin: 153.205px 133.66px;" id="elyl7vmkoxsdn" class="animable"></path><path d="M145.65,143.55c3,1.71,13.91-4,11.67-12.7,0,0,4.16-5,3.69-10.52s-4.26-7.62-8.29-6.43c-3.55,1-3.45,3-3.45,3s-16.79,2-13.2,8.81C129.23,133.14,141.91,141.41,145.65,143.55Z" style="fill: rgb(38, 50, 56); transform-origin: 147.563px 128.715px;" id="el6sjd3aeb6hp" class="animable"></path><path d="M136.54,126.25s-2-3.46-4.92-1.52C133,124.75,135.24,125,136.54,126.25Z" style="fill: rgb(38, 50, 56); transform-origin: 134.08px 125.195px;" id="el9v42dqdpb85" class="animable"></path><path d="M160.47,124s3.66-8.26-2-10.92A14.12,14.12,0,0,1,160.47,124Z" style="fill: rgb(38, 50, 56); transform-origin: 160.052px 118.54px;" id="elv2zgl3jfdm" class="animable"></path><path d="M154.4,132.36a8.21,8.21,0,0,0,3,4.38c1.91,1.42,3.34,0,3.21-2.14-.13-1.95-1.27-5-3.38-5.61S153.85,130.24,154.4,132.36Z" style="fill: rgb(255, 195, 189); transform-origin: 157.445px 133.092px;" id="elx8s49fmx15m" class="animable"></path><path d="M158.34,221.87S150,278,145.42,299c-5,23-31.89,99.24-31.89,99.24l-13.15-2.85s18.8-62.1,23-94.3c3.23-24.73,9.6-79.26,9.6-79.26Z" style="fill: rgb(38, 50, 56); transform-origin: 129.36px 310.035px;" id="elfqgzauvsiri" class="animable"></path><path d="M116.68,393.89c.06,0-2.45,4.76-2.45,4.76l-14.79-3.21,1.24-4.44Z" style="fill: rgb(64, 123, 255); transform-origin: 108.061px 394.825px;" id="elp9vv1j3a4y8" class="animable"></path><g id="elwv58h9apgki"><path d="M153.07,241.87c-9.64,1.89-8.62,37.84-7.46,56.33,2.78-13.07,6.85-38.22,9.63-56.07A3.29,3.29,0,0,0,153.07,241.87Z" style="opacity: 0.3; transform-origin: 150.062px 269.996px;" class="animable"></path></g><path d="M172.27,221.87s1,54.93.22,77.33c-.83,23.3-9,99.6-9,99.6H151.07s-.45-74.94-1-97.82c-.6-25-3.61-79.11-3.61-79.11Z" style="fill: rgb(38, 50, 56); transform-origin: 159.624px 310.335px;" id="elb5ghn0gtlr" class="animable"></path><g id="elfj9qghom03p"><polygon points="241.36 183.15 216.01 183.15 214.59 208.93 239.91 209.61 241.36 183.15" style="fill: rgb(38, 50, 56); opacity: 0.4; transform-origin: 227.975px 196.38px;" class="animable"></polygon></g><path d="M228,199.74l-25.39-3.14a219,219,0,0,0,4.57-25.93l25.54,3.14A219.22,219.22,0,0,1,228,199.74Z" style="fill: rgb(64, 123, 255); transform-origin: 217.665px 185.205px;" id="el60rd1xiu908" class="animable"></path><path d="M165.91,393.84c.06,0-.7,5.17-.7,5.17H150.07l-.41-4.61Z" style="fill: rgb(64, 123, 255); transform-origin: 157.787px 396.425px;" id="elt3arz4427t" class="animable"></path><path d="M175.46,165.07c1.13,1.76,2.42,3.74,3.71,5.56s2.62,3.68,4,5.45a74.64,74.64,0,0,0,8.76,9.77,30.73,30.73,0,0,0,2.36,2l.6.45a2.32,2.32,0,0,0-.35-.12c-.26,0-.39,0-.32,0a3.26,3.26,0,0,0,1.65-.38,18.66,18.66,0,0,0,2.53-1.31A87.82,87.82,0,0,0,209,178.33l4.29,3.46a50.67,50.67,0,0,1-9.62,11.73,22.74,22.74,0,0,1-3.43,2.53,13.47,13.47,0,0,1-5.05,1.88,8.92,8.92,0,0,1-3.82-.33,8.67,8.67,0,0,1-1.95-.89l-.86-.55c-1.15-.74-2.24-1.53-3.27-2.34A72.37,72.37,0,0,1,174.47,183c-1.57-1.94-3.09-3.9-4.5-5.94s-2.76-4-4.08-6.32Z" style="fill: rgb(255, 195, 189); transform-origin: 189.59px 181.538px;" id="elr7hts9n6y7h" class="animable"></path><path d="M161,169.48c-2.35,9.85,15.47,19.5,15.47,19.5l11.58-13.56a95.87,95.87,0,0,0-11.83-14.28C168.16,153.37,162.82,162,161,169.48Z" style="fill: rgb(64, 123, 255); transform-origin: 174.418px 173.533px;" id="elatubp1n2vgt" class="animable"></path><g id="el9zac4zeniaw"><path d="M161,169.48c-2.35,9.85,15.47,19.5,15.47,19.5l11.58-13.56a95.87,95.87,0,0,0-11.83-14.28C168.16,153.37,162.82,162,161,169.48Z" style="fill: rgb(250, 250, 250); opacity: 0.2; transform-origin: 174.418px 173.533px;" class="animable"></path></g><path d="M207.78,180.38l2.74-8.78,7.19,3.59s-1.05,6.4-6.29,7.51Z" style="fill: rgb(255, 195, 189); transform-origin: 212.745px 177.15px;" id="el60k167tjzgo" class="animable"></path><polygon points="213.4 169.17 219.88 170.96 217.71 175.19 210.51 171.6 213.4 169.17" style="fill: rgb(255, 195, 189); transform-origin: 215.195px 172.18px;" id="eluynx2o4ej78" class="animable"></polygon></g><defs>     <filter id="active" height="200%">         <feMorphology in="SourceAlpha" result="DILATED" operator="dilate" radius="2"></feMorphology>                <feFlood flood-color="#32DFEC" flood-opacity="1" result="PINK"></feFlood>        <feComposite in="PINK" in2="DILATED" operator="in" result="OUTLINE"></feComposite>        <feMerge>            <feMergeNode in="OUTLINE"></feMergeNode>            <feMergeNode in="SourceGraphic"></feMergeNode>        </feMerge>    </filter>    <filter id="hover" height="200%">        <feMorphology in="SourceAlpha" result="DILATED" operator="dilate" radius="2"></feMorphology>                <feFlood flood-color="#ff0000" flood-opacity="0.5" result="PINK"></feFlood>        <feComposite in="PINK" in2="DILATED" operator="in" result="OUTLINE"></feComposite>        <feMerge>            <feMergeNode in="OUTLINE"></feMergeNode>            <feMergeNode in="SourceGraphic"></feMergeNode>        </feMerge>            <feColorMatrix type="matrix" values="0   0   0   0   0                0   1   0   0   0                0   0   0   0   0                0   0   0   1   0 "></feColorMatrix>    </filter></defs></svg>